<svg xmlns="http://www.w3.org/2000/svg" fill="none" viewBox="0 0 512 512">
    
    <path d="M177 85.3333C177 124.174 145.508 155.667 106.667 155.667C67.8256 155.667 36.3333 124.174 36.3333 85.3333C36.3333 46.4923 67.8256 15 106.667 15C145.508 15 177 46.4923 177 85.3333ZM228.333 85.3333C228.333 46.4923 259.826 15 298.667 15C337.508 15 369 46.4923 369 85.3333C369 124.174 337.508 155.667 298.667 155.667C259.826 155.667 228.333 124.174 228.333 85.3333ZM390.333 298.667V426.667C390.333 465.508 358.841 497 320 497H85.3333C46.4923 497 15 465.508 15 426.667V298.667C15 259.826 46.4923 228.333 85.3333 228.333H320C358.841 228.333 390.333 259.826 390.333 298.667ZM463 429.008V276.101L474.92 264.181C483.095 256.016 497 261.824 497 273.301V431.787C497 443.321 483.075 449.084 474.927 440.935L463 429.008Z"/>
    <style>
        path { fill: #0ea5e9; }
        @media (prefers-color-scheme: dark) {
            path { fill: #FFF; }
        }
    </style>
</svg>
