<svg width="512" height="512" viewBox="0 0 512 512" fill="none" xmlns="http://www.w3.org/2000/svg">
<g clip-path="url(#clip0_112_8)">
<path d="M320 333.333C320 309.287 310.448 286.226 293.444 269.222C276.441 252.219 253.38 242.667 229.333 242.667C205.287 242.667 182.226 252.219 165.222 269.222C148.219 286.226 138.667 309.287 138.667 333.333C138.667 341.82 142.038 349.96 148.039 355.961C154.04 361.962 162.18 365.333 170.667 365.333C179.154 365.333 187.293 361.962 193.294 355.961C199.295 349.96 202.667 341.82 202.667 333.333C202.667 326.261 205.476 319.478 210.477 314.477C215.478 309.476 222.261 306.667 229.333 306.667C236.406 306.667 243.189 309.476 248.19 314.477C253.191 319.478 256 326.261 256 333.333C256 346.667 230.571 365.739 210.133 381.056C176.64 406.187 138.667 434.667 138.667 480C138.667 488.487 142.038 496.626 148.039 502.627C154.04 508.629 162.18 512 170.667 512H288C296.487 512 304.626 508.629 310.628 502.627C316.629 496.626 320 488.487 320 480C320 471.513 316.629 463.374 310.628 457.373C304.626 451.371 296.487 448 288 448H228.267C234.88 442.581 242.027 437.333 248.64 432.277C282.027 407.147 320 378.667 320 333.333Z" fill="black"/>
<path d="M480 234.667C471.513 234.667 463.374 238.038 457.373 244.039C451.371 250.04 448 258.18 448 266.667V362.667H432C424.931 362.655 418.155 359.842 413.156 354.844C408.158 349.845 405.345 343.069 405.333 336V266.667C405.333 258.18 401.962 250.04 395.961 244.039C389.959 238.038 381.82 234.667 373.333 234.667C364.846 234.667 356.707 238.038 350.706 244.039C344.705 250.04 341.333 258.18 341.333 266.667V336C341.361 360.038 350.923 383.083 367.92 400.08C384.917 417.077 407.962 426.638 432 426.667H448V480C448 488.487 451.371 496.626 457.373 502.627C463.374 508.629 471.513 512 480 512C488.487 512 496.626 508.629 502.627 502.627C508.628 496.626 512 488.487 512 480V266.667C512 258.18 508.628 250.04 502.627 244.039C496.626 238.038 488.487 234.667 480 234.667Z" fill="black"/>
<path d="M475.584 57.7494L447.36 85.9734C405.51 38.8721 347.759 8.85893 285.162 1.67861C222.564 -5.50172 159.518 10.6552 108.089 47.0567C56.6602 83.4583 20.4622 137.548 6.42344 198.971C-7.61536 260.395 1.49119 324.839 32.0001 379.968C34.0382 383.644 36.7803 386.882 40.0699 389.498C43.3594 392.114 47.132 394.056 51.1722 395.214C55.2125 396.372 59.4412 396.722 63.6169 396.246C67.7927 395.77 71.8338 394.475 75.5094 392.437C79.185 390.399 82.4232 387.657 85.0391 384.368C87.6549 381.078 89.5972 377.305 90.7551 373.265C91.913 369.225 92.2638 364.996 91.7874 360.82C91.311 356.645 90.0168 352.604 87.9787 348.928C64.9166 307.321 58.1366 258.63 68.9547 212.306C79.7729 165.981 107.417 125.329 146.522 98.2402C185.627 71.1514 233.402 59.5587 280.573 65.7123C327.744 71.866 370.946 95.3271 401.792 131.541L377.749 155.584C374.767 158.568 372.736 162.368 371.913 166.506C371.09 170.644 371.513 174.932 373.127 178.83C374.741 182.728 377.475 186.059 380.982 188.403C384.49 190.747 388.613 191.999 392.832 192H490.667C496.325 192 501.751 189.752 505.752 185.752C509.752 181.751 512 176.325 512 170.667V72.832C511.999 68.6133 510.747 64.4896 508.403 60.9822C506.059 57.4748 502.728 54.7412 498.83 53.1269C494.932 51.5126 490.644 51.0901 486.506 51.9129C482.368 52.7357 478.568 54.7667 475.584 57.7494Z" fill="black"/>
</g>
<defs>
<clipPath id="clip0_112_8">
<rect width="512" height="512" fill="white"/>
</clipPath>
</defs>
</svg>
