<svg width="512" height="512" viewBox="0 0 512 512" fill="none" xmlns="http://www.w3.org/2000/svg">
<g clip-path="url(#clip0_98_16)">
<path d="M454.333 122.112V129.612L460.333 134.112C483.365 151.386 497 178.457 497 207.445V405.333C497 455.865 455.865 497 405.333 497H362.667C359.163 497 356.333 494.168 356.333 490.667V298.667C356.333 278.638 340.07 262.333 320 262.333H192C171.93 262.333 155.667 278.638 155.667 298.667V490.667C155.667 494.168 152.837 497 149.333 497H106.667C56.1349 497 15 455.865 15 405.333V207.445C15 176.913 30.1003 148.525 55.3905 131.451L204.719 30.6756C204.72 30.6749 204.721 30.6743 204.722 30.6736C235.896 9.64743 276.104 9.64754 307.279 30.6739C307.28 30.6745 307.281 30.675 307.281 30.6756L418.276 105.575L441.667 121.359V93.1414V42.6667C441.667 39.1652 444.497 36.3334 448 36.3334C451.503 36.3334 454.333 39.1652 454.333 42.6667V122.112Z" stroke="black" stroke-width="30"/>
</g>
<defs>
<clipPath id="clip0_98_16">
<rect width="512" height="512" fill="white"/>
</clipPath>
</defs>
</svg>
