<svg width="512" height="512" viewBox="0 0 512 512" fill="none" xmlns="http://www.w3.org/2000/svg">
<g clip-path="url(#clip0_100_2)">
<path d="M480 134.333H170.667C166.158 134.333 161.834 132.542 158.646 129.354C155.458 126.166 153.667 121.842 153.667 117.333C153.667 112.825 155.458 108.501 158.646 105.312C161.834 102.124 166.158 100.333 170.667 100.333H480C484.509 100.333 488.833 102.124 492.021 105.312C495.209 108.501 497 112.825 497 117.333C497 121.842 495.209 126.166 492.021 129.354C488.833 132.542 484.509 134.333 480 134.333Z" stroke="black" stroke-width="30"/>
<path d="M170.667 249.667H480C484.509 249.667 488.833 251.458 492.021 254.646C495.209 257.834 497 262.158 497 266.667C497 271.175 495.209 275.499 492.021 278.688C488.833 281.876 484.509 283.667 480 283.667L170.667 283.667C166.158 283.667 161.834 281.876 158.646 278.688C155.458 275.499 153.667 271.175 153.667 266.667C153.667 262.158 155.458 257.834 158.646 254.646C161.834 251.458 166.158 249.667 170.667 249.667Z" stroke="black" stroke-width="30"/>
<path d="M170.667 399H480C484.509 399 488.833 400.791 492.021 403.979C495.209 407.167 497 411.491 497 416C497 420.509 495.209 424.833 492.021 428.021C488.833 431.209 484.509 433 480 433H170.667C166.158 433 161.834 431.209 158.646 428.021C155.458 424.833 153.667 420.509 153.667 416C153.667 411.491 155.458 407.167 158.646 403.979C161.834 400.791 166.158 399 170.667 399Z" stroke="black" stroke-width="30"/>
<path d="M91.6667 117.333C91.6667 138.504 74.5042 155.667 53.3333 155.667C32.1624 155.667 15 138.504 15 117.333C15 96.1624 32.1624 79 53.3333 79C74.5042 79 91.6667 96.1624 91.6667 117.333Z" stroke="black" stroke-width="30"/>
<path d="M91.6667 256C91.6667 277.171 74.5042 294.333 53.3333 294.333C32.1624 294.333 15 277.171 15 256C15 234.829 32.1624 217.667 53.3333 217.667C74.5042 217.667 91.6667 234.829 91.6667 256Z" stroke="black" stroke-width="30"/>
<path d="M91.6667 405.333C91.6667 426.504 74.5042 443.667 53.3333 443.667C32.1624 443.667 15 426.504 15 405.333C15 384.162 32.1624 367 53.3333 367C74.5042 367 91.6667 384.162 91.6667 405.333Z" stroke="black" stroke-width="30"/>
</g>
<defs>
<clipPath id="clip0_100_2">
<rect width="512" height="512" fill="white"/>
</clipPath>
</defs>
</svg>
