<svg width="512" height="512" viewBox="0 0 512 512" fill="none" xmlns="http://www.w3.org/2000/svg">
<path d="M328.714 371.288C348.549 359.4 350.978 332.709 336.003 317.195V315.281L328.08 311.042L229.503 258.285C206.294 244.715 177 261.437 177 288.427V394.261C177 421.251 206.294 437.973 229.503 424.403L328.08 371.647L328.402 371.475L328.714 371.288ZM269.045 134.333L367.045 36.3334H405.333C408.012 36.3334 410.663 36.4488 413.28 36.675L315.621 134.333H269.045ZM497 128V134.333H418.379L479.076 73.6358C490.347 88.865 497 107.673 497 128ZM264.288 36.3334L166.288 134.333H131.25L230.622 36.3334H264.288ZM15 134.333V128C15 77.4683 56.1349 36.3334 106.667 36.3334H127.14L27.7678 134.333H15ZM497 207V384C497 434.532 455.865 475.667 405.333 475.667H106.667C56.1349 475.667 15 434.532 15 384V207H497Z" stroke="black" stroke-width="30"/>
</svg>
