<svg width="512" height="512" viewBox="0 0 512 512" fill="none" xmlns="http://www.w3.org/2000/svg">
<g clip-path="url(#clip0_123_16)">
<path d="M231.637 168.355L231.715 168.399L231.793 168.442L341.826 228.693L342.435 229.035C352.586 234.738 358.355 244.69 358.355 256.021C358.355 267.368 352.577 277.281 342.691 282.865L231.58 343.707L231.502 343.75L231.424 343.794C226.759 346.42 221.66 347.709 216.576 347.709C211.267 347.709 205.906 346.32 200.964 343.428L200.958 343.424C191.334 337.797 185.688 327.945 185.688 316.8V195.221C185.688 184.076 191.334 174.224 200.958 168.597L200.96 168.596C210.544 162.99 221.925 162.886 231.637 168.355ZM15 256C15 123.122 123.122 15 256 15C388.878 15 497 123.122 497 256C497 388.878 388.878 497 256 497C123.122 497 15 388.878 15 256ZM27.6667 256C27.6667 381.916 130.084 484.333 256 484.333C381.916 484.333 484.333 381.916 484.333 256C484.333 130.084 381.916 27.6667 256 27.6667C130.084 27.6667 27.6667 130.084 27.6667 256Z" stroke="black" stroke-width="30"/>
</g>
<defs>
<clipPath id="clip0_123_16">
<rect width="512" height="512" fill="white"/>
</clipPath>
</defs>
</svg>
