<svg width="512" height="512" viewBox="0 0 512 512" fill="none" xmlns="http://www.w3.org/2000/svg">
<path d="M74.2806 279.533H74.3256L37.2477 252.425C28.0853 245.726 21.2742 236.303 17.7872 225.501C14.3003 214.7 14.3158 203.073 17.8317 192.281C21.3476 181.49 28.1839 172.085 37.3642 165.41C46.5418 158.738 57.5927 155.136 68.9393 155.117C68.9426 155.117 68.946 155.117 68.9493 155.117L162.133 155.117H173.074L176.416 144.7L204.726 56.4652L204.727 56.4612C208.209 45.5985 215.05 36.1223 224.266 29.3991C233.481 22.6759 244.593 19.0531 256 19.0531C267.407 19.0531 278.519 22.6759 287.734 29.3991C296.95 36.1223 303.791 45.5985 307.273 56.4612L307.274 56.4652L335.584 144.7L338.926 155.117H349.867L443.136 155.117C443.139 155.117 443.143 155.117 443.146 155.117C454.493 155.136 465.543 158.738 474.721 165.41C483.901 172.085 490.738 181.49 494.254 192.281C497.769 203.073 497.785 214.7 494.298 225.501C490.812 236.3 484.003 245.721 474.844 252.42C474.842 252.422 474.84 252.423 474.838 252.425L398.897 307.887L390.136 314.285L393.47 324.609L422.312 413.931C422.312 413.932 422.312 413.932 422.312 413.932C425.811 424.77 425.784 436.438 422.234 447.259C418.683 458.081 411.793 467.498 402.553 474.156C393.314 480.815 382.2 484.372 370.812 484.317C359.423 484.261 348.345 480.596 339.171 473.847L339.166 473.844L264.883 419.252L255.993 412.719L247.109 419.258L172.847 473.914L172.777 473.966L172.708 474.018C163.625 480.866 152.573 484.597 141.198 484.654C129.822 484.711 118.733 481.091 109.583 474.333L109.443 474.23L109.3 474.13C99.9894 467.582 93.0438 458.201 89.4991 447.384C85.9544 436.567 86.0004 424.895 89.6302 414.106L89.6594 414.019L89.6876 413.932L118.53 324.609L121.864 314.285L113.103 307.887L74.2806 279.533Z" stroke="black" stroke-width="30"/>
</svg>
